<?xml version="1.0" encoding="UTF-8"?>
<svg xmlns="http://www.w3.org/2000/svg" viewBox="0 0 960 520" role="img" aria-label="OmniPost smart scheduler and content calendar">
  <defs>
    <filter id="opsSh"><feDropShadow dx="0" dy="6" stdDeviation="10" flood-color="#7C3AED" flood-opacity="0.12"/></filter>
    <linearGradient id="opsGrad" x1="0%" y1="0%" x2="100%" y2="0%"><stop offset="0%" stop-color="#7C3AED"/><stop offset="100%" stop-color="#EC4899"/></linearGradient>
    <style>
      .ops-pulse{animation:opsPulse 2s ease-in-out infinite}
      @keyframes opsPulse{0%,100%{opacity:1}50%{opacity:.4}}
    </style>
  </defs>
  <rect width="960" height="520" rx="16" fill="#FAFAFE"/>

  <g filter="url(#opsSh)">
    <rect x="20" y="20" width="560" height="480" rx="14" fill="#FFFFFF" stroke="#E2E8F0"/>
    <rect x="20" y="20" width="560" height="44" rx="14" fill="#312E81"/>
    <text x="40" y="48" font-family="Space Grotesk,sans-serif" font-size="13" font-weight="800" fill="#FFFFFF">Content Calendar</text>
    <text x="200" y="48" font-family="Inter,sans-serif" font-size="9" fill="#FFFFFF" opacity=".8">June 2026</text>
    <rect x="480" y="32" width="80" height="22" rx="11" fill="#D1FAE5"/>
    <circle cx="494" cy="43" r="5" fill="#10B981" class="ops-pulse"/>
    <text x="506" y="47" font-family="Inter,sans-serif" font-size="8" font-weight="700" fill="#059669">34 queued</text>

    <!-- Calendar grid -->
    <text x="48" y="84" font-family="Inter,sans-serif" font-size="8" font-weight="700" fill="#94A3B8">MON</text>
    <text x="128" y="84" font-family="Inter,sans-serif" font-size="8" font-weight="700" fill="#94A3B8">TUE</text>
    <text x="208" y="84" font-family="Inter,sans-serif" font-size="8" font-weight="700" fill="#94A3B8">WED</text>
    <text x="288" y="84" font-family="Inter,sans-serif" font-size="8" font-weight="700" fill="#94A3B8">THU</text>
    <text x="368" y="84" font-family="Inter,sans-serif" font-size="8" font-weight="700" fill="#94A3B8">FRI</text>
    <text x="448" y="84" font-family="Inter,sans-serif" font-size="8" font-weight="700" fill="#94A3B8">SAT</text>
    <text x="528" y="84" font-family="Inter,sans-serif" font-size="8" font-weight="700" fill="#94A3B8">SUN</text>

    <g font-family="Inter,sans-serif">
      <rect x="40" y="96" width="68" height="68" rx="8" fill="#F8FAFC" stroke="#E2E8F0"/><text x="48" y="112" font-size="9" fill="#64748B">16</text>
      <rect x="120" y="96" width="68" height="68" rx="8" fill="#F8FAFC" stroke="#E2E8F0"/><text x="128" y="112" font-size="9" fill="#64748B">17</text>
      <rect x="200" y="96" width="68" height="68" rx="8" fill="#EDE9FE" stroke="#7C3AED" stroke-width="2"/><text x="208" y="112" font-size="9" font-weight="700" fill="#7C3AED">18</text>
      <rect x="208" y="120" width="52" height="14" rx="4" fill="#7C3AED"/><text x="234" y="130" text-anchor="middle" font-size="6" fill="#FFF">3:00 PM</text>
      <rect x="280" y="96" width="68" height="68" rx="8" fill="#F8FAFC" stroke="#E2E8F0"/><text x="288" y="112" font-size="9" fill="#64748B">19</text>
      <rect x="288" y="120" width="52" height="14" rx="4" fill="#1877F2"/><text x="314" y="130" text-anchor="middle" font-size="6" fill="#FFF">10 AM</text>
      <rect x="360" y="96" width="68" height="68" rx="8" fill="#F8FAFC" stroke="#E2E8F0"/><text x="368" y="112" font-size="9" fill="#64748B">20</text>
      <rect x="440" y="96" width="68" height="68" rx="8" fill="#F8FAFC" stroke="#E2E8F0"/><text x="448" y="112" font-size="9" fill="#64748B">21</text>
      <rect x="520" y="96" width="68" height="68" rx="8" fill="#F8FAFC" stroke="#E2E8F0"/><text x="528" y="112" font-size="9" fill="#64748B">22</text>

      <rect x="40" y="176" width="68" height="68" rx="8" fill="#F8FAFC" stroke="#E2E8F0"/><text x="48" y="192" font-size="9" fill="#64748B">23</text>
      <rect x="120" y="176" width="68" height="68" rx="8" fill="#D1FAE5" stroke="#10B981"/><text x="128" y="192" font-size="9" font-weight="700" fill="#059669">24</text>
      <rect x="128" y="200" width="52" height="14" rx="4" fill="#10B981"/><text x="154" y="210" text-anchor="middle" font-size="6" fill="#FFF">LIVE</text>
      <rect x="200" y="176" width="68" height="68" rx="8" fill="#F8FAFC" stroke="#E2E8F0"/><text x="208" y="192" font-size="9" fill="#64748B">25</text>
      <rect x="280" y="176" width="68" height="68" rx="8" fill="#F8FAFC" stroke="#E2E8F0"/><text x="288" y="192" font-size="9" fill="#64748B">26</text>
      <rect x="360" y="176" width="68" height="68" rx="8" fill="#F8FAFC" stroke="#E2E8F0"/><text x="368" y="192" font-size="9" fill="#64748B">27</text>
      <rect x="440" y="176" width="68" height="68" rx="8" fill="#F8FAFC" stroke="#E2E8F0"/><text x="448" y="192" font-size="9" fill="#64748B">28</text>
      <rect x="520" y="176" width="68" height="68" rx="8" fill="#F8FAFC" stroke="#E2E8F0"/><text x="528" y="192" font-size="9" fill="#64748B">29</text>
    </g>

    <rect x="40" y="268" width="520" height="100" rx="10" fill="#F8FAFC" stroke="#E2E8F0"/>
    <text x="56" y="292" font-family="Inter,sans-serif" font-size="9" font-weight="700" fill="#64748B">UPCOMING TODAY</text>
    <rect x="56" y="304" width="480" height="28" rx="6" fill="#FFFFFF" stroke="#E2E8F0"/>
    <circle cx="70" cy="318" r="8" fill="#0A66C2"/><text x="86" y="322" font-size="9" fill="#1E293B">Summer launch - LinkedIn - 3:00 PM</text>
    <rect x="420" y="310" width="56" height="18" rx="4" fill="#EDE9FE"/><text x="448" y="322" text-anchor="middle" font-size="7" font-weight="600" fill="#7C3AED">Scheduled</text>
    <rect x="56" y="340" width="480" height="28" rx="6" fill="#FFFFFF" stroke="#E2E8F0"/>
    <circle cx="70" cy="354" r="8" fill="#1877F2"/><text x="86" y="358" font-size="9" fill="#1E293B">Product tips - Facebook - 5:30 PM</text>
    <rect x="420" y="346" width="56" height="18" rx="4" fill="#EDE9FE"/><text x="448" y="358" text-anchor="middle" font-size="7" font-weight="600" fill="#7C3AED">Scheduled</text>

    <rect x="40" y="384" width="520" height="100" rx="10" fill="#FFFFFF" stroke="#E2E8F0"/>
    <text x="56" y="408" font-family="Inter,sans-serif" font-size="9" font-weight="700" fill="#64748B">CONNECTED ACCOUNTS</text>
    <circle cx="72" cy="436" r="12" fill="#1877F2"/><text x="72" y="440" text-anchor="middle" font-size="9" font-weight="800" fill="#FFF">f</text>
    <text x="92" y="440" font-size="9" fill="#1E293B">Rasant Solutions</text>
    <rect x="200" y="426" width="48" height="18" rx="4" fill="#D1FAE5"/><text x="224" y="438" text-anchor="middle" font-size="7" fill="#059669">Connected</text>
    <circle cx="72" cy="468" r="12" fill="#0A66C2"/><text x="72" y="472" text-anchor="middle" font-size="7" font-weight="800" fill="#FFF">in</text>
    <text x="92" y="472" font-size="9" fill="#1E293B">Rasant Solutions</text>
    <rect x="200" y="458" width="48" height="18" rx="4" fill="#D1FAE5"/><text x="224" y="470" text-anchor="middle" font-size="7" fill="#059669">Connected</text>
  </g>

  <!-- Schedule post panel -->
  <g filter="url(#opsSh)">
    <rect x="600" y="20" width="340" height="480" rx="14" fill="#FFFFFF" stroke="#E2E8F0"/>
    <text x="620" y="52" font-family="Space Grotesk,sans-serif" font-size="12" font-weight="700" fill="#312E81">Schedule post</text>
    <text x="620" y="72" font-family="Inter,sans-serif" font-size="9" fill="#64748B">Summer product launch</text>

    <text x="620" y="100" font-family="Inter,sans-serif" font-size="9" font-weight="700" fill="#64748B">DATE &amp; TIME</text>
    <rect x="620" y="108" width="300" height="32" rx="8" fill="#F8FAFC" stroke="#E2E8F0"/>
    <text x="632" y="129" font-size="10" fill="#1E293B">Jun 18, 2026 - 3:00 PM (PKT)</text>

    <text x="620" y="160" font-family="Inter,sans-serif" font-size="9" font-weight="700" fill="#64748B">PLATFORMS</text>
    <rect x="620" y="168" width="88" height="26" rx="6" fill="#EFF6FF" stroke="#0A66C2"/><text x="664" y="185" text-anchor="middle" font-size="8" font-weight="600" fill="#0A66C2">LinkedIn</text>
    <rect x="716" y="168" width="88" height="26" rx="6" fill="#EFF6FF" stroke="#1877F2"/><text x="760" y="185" text-anchor="middle" font-size="8" font-weight="600" fill="#1877F2">Facebook</text>
    <rect x="812" y="168" width="88" height="26" rx="6" fill="#F8FAFC" stroke="#CBD5E1"/><text x="856" y="185" text-anchor="middle" font-size="8" fill="#94A3B8">Twitter</text>

    <text x="620" y="216" font-family="Inter,sans-serif" font-size="9" font-weight="700" fill="#64748B">PREVIEW</text>
    <rect x="620" y="224" width="300" height="180" rx="8" fill="#F8FAFC" stroke="#E2E8F0"/>
    <circle cx="644" cy="248" r="12" fill="#0A66C2"/><text x="644" y="252" text-anchor="middle" font-size="8" font-weight="800" fill="#FFF">R</text>
    <text x="662" y="246" font-size="9" font-weight="700" fill="#1E293B">Rasant Solutions</text>
    <text x="662" y="260" font-size="8" fill="#64748B">Scheduled post</text>
    <text x="632" y="284" font-size="9" fill="#1E293B">Ship social content faster with AI...</text>
    <rect x="632" y="296" width="276" height="60" rx="6" fill="url(#opsGrad)"/>
    <text x="770" y="332" text-anchor="middle" font-size="11" font-weight="800" fill="#FFF">OmniPost</text>

    <rect x="620" y="420" width="300" height="36" rx="8" fill="url(#opsGrad)"/>
    <text x="770" y="443" text-anchor="middle" font-family="Inter,sans-serif" font-size="10" font-weight="700" fill="#FFFFFF">Schedule &amp; Publish</text>
    <rect x="620" y="464" width="140" height="28" rx="6" fill="#F8FAFC" stroke="#E2E8F0"/>
    <text x="690" y="482" text-anchor="middle" font-size="9" fill="#64748B">Save as draft</text>
  </g>
</svg>
