<?xml version="1.0" encoding="UTF-8"?>
<svg xmlns="http://www.w3.org/2000/svg" viewBox="0 0 1320 720" role="img" aria-label="Sentra AI platform flows">
  <defs>
    <linearGradient id="spBg" x1="0%" y1="0%" x2="100%" y2="100%">
      <stop offset="0%" stop-color="#FFF8F3"/>
      <stop offset="50%" stop-color="#F5F0FF"/>
      <stop offset="100%" stop-color="#EFF6FF"/>
    </linearGradient>
    <linearGradient id="spHub" x1="0%" y1="0%" x2="100%" y2="100%">
      <stop offset="0%" stop-color="#FFD5B4"/>
      <stop offset="45%" stop-color="#C9C4F8"/>
      <stop offset="100%" stop-color="#4A90E2"/>
    </linearGradient>
    <linearGradient id="spNavy" x1="0%" y1="0%" x2="0%" y2="100%">
      <stop offset="0%" stop-color="#2A5F9E"/>
      <stop offset="100%" stop-color="#1E3A5F"/>
    </linearGradient>
    <linearGradient id="spTeal" x1="0%" y1="0%" x2="0%" y2="100%">
      <stop offset="0%" stop-color="#2DD4BF"/>
      <stop offset="100%" stop-color="#0F766E"/>
    </linearGradient>
    <linearGradient id="spOrange" x1="0%" y1="0%" x2="0%" y2="100%">
      <stop offset="0%" stop-color="#FB923C"/>
      <stop offset="100%" stop-color="#C2410C"/>
    </linearGradient>
    <linearGradient id="spPurple" x1="0%" y1="0%" x2="100%" y2="100%">
      <stop offset="0%" stop-color="#A78BFA"/>
      <stop offset="100%" stop-color="#6D28D9"/>
    </linearGradient>
    <linearGradient id="spCardGlow" x1="0%" y1="0%" x2="100%" y2="100%">
      <stop offset="0%" stop-color="#4A90E2" stop-opacity="0.12"/>
      <stop offset="100%" stop-color="#14B8A6" stop-opacity="0.08"/>
    </linearGradient>
    <filter id="spSh" x="-8%" y="-8%" width="116%" height="116%">
      <feDropShadow dx="0" dy="6" stdDeviation="10" flood-color="#2A5F9E" flood-opacity="0.16"/>
    </filter>
    <filter id="spGlow" x="-40%" y="-40%" width="180%" height="180%">
      <feDropShadow dx="0" dy="0" stdDeviation="6" flood-color="#4A90E2" flood-opacity="0.35"/>
    </filter>
    <style>
      .sp-flow { stroke-dasharray:8 6; animation: spFlow 0.9s linear infinite; }
      @keyframes spFlow { to { stroke-dashoffset:-28; } }
      .sp-pulse { animation: spPulse 2.5s ease-in-out infinite; transform-box:fill-box; transform-origin:center; }
      @keyframes spPulse { 0%,100%{transform:scale(1)} 50%{transform:scale(1.05)} }
      .sp-ring { animation: spRing 18s linear infinite; transform-box:fill-box; transform-origin:center; }
      @keyframes spRing { to { transform:rotate(360deg); } }
      .sp-wave rect { animation: spWave 1.2s ease-in-out infinite; transform-box:fill-box; transform-origin:bottom; }
      .sp-wave rect:nth-child(2) { animation-delay:.15s; }
      .sp-wave rect:nth-child(3) { animation-delay:.3s; }
      .sp-wave rect:nth-child(4) { animation-delay:.45s; }
      @keyframes spWave { 0%,100%{opacity:.5;transform:scaleY(.7)} 50%{opacity:1;transform:scaleY(1)} }
      .sp-blink { animation: spBlink 2s ease-in-out infinite; }
      @keyframes spBlink { 0%,100%{opacity:.45} 50%{opacity:1} }
      .sp-typing circle { animation: spTyping 1.4s ease-in-out infinite; }
      .sp-typing circle:nth-child(2) { animation-delay:.18s; }
      .sp-typing circle:nth-child(3) { animation-delay:.36s; }
      @keyframes spTyping { 0%,60%,100%{opacity:.3} 30%{opacity:1} }
      .sp-card-center { animation: spCardGlow 3s ease-in-out infinite; }
      @keyframes spCardGlow { 0%,100%{filter:none} 50%{filter:url(#spGlow)} }
      .sp-flow-section { transition: opacity 0.45s ease; }
      .sp-channel-btn { cursor:pointer; transition: opacity 0.35s ease; }
      .sp-channel-btn .sp-ch-bg { transition: stroke-width 0.25s ease, fill 0.25s ease; }
      @media (prefers-reduced-motion: reduce) {
        .sp-flow, .sp-pulse, .sp-ring, .sp-wave rect, .sp-blink, .sp-typing circle, .sp-card-center { animation:none!important; }
      }
    </style>
  </defs>

  <rect width="1320" height="720" rx="20" fill="url(#spBg)"/>
  <ellipse cx="200" cy="120" rx="120" ry="90" fill="#C9C4F8" opacity="0.12"/>
  <ellipse cx="1100" cy="580" rx="140" ry="100" fill="#FFD5B4" opacity="0.14"/>
  <ellipse cx="700" cy="360" rx="200" ry="160" fill="#4A90E2" opacity="0.04"/>

  <!-- Header -->
  <text x="660" y="36" text-anchor="middle" font-family="Space Grotesk,Arial,sans-serif" font-size="21" font-weight="800" fill="#1E3A5F">How Sentra AI works</text>
  <text x="660" y="58" text-anchor="middle" font-family="Inter,Arial,sans-serif" font-size="12" fill="#64748B">Simple flows on every channel — AI Voice Agent &amp; Chatbot handle conversations, your team joins when needed</text>
  <circle class="sp-blink" cx="1188" cy="36" r="5" fill="#22C55E"/>
  <text x="1200" y="40" font-family="Inter,Arial,sans-serif" font-size="10" font-weight="600" fill="#059669">Live</text>

  <!-- Channels -->
  <g id="sp-channels" filter="url(#spSh)">
    <rect x="24" y="78" width="176" height="468" rx="14" fill="#FFFFFF" stroke="#CBD5E1"/>
    <rect x="24" y="78" width="176" height="34" rx="14" fill="url(#spNavy)"/>
    <rect x="24" y="96" width="176" height="16" fill="url(#spNavy)"/>
    <text x="112" y="100" text-anchor="middle" font-size="10" font-weight="700" fill="#FFFFFF" letter-spacing="0.5">YOUR CHANNELS</text>

    <g class="sp-channel-btn" data-process="voice">
      <rect class="sp-ch-bg" x="36" y="118" width="152" height="42" rx="9" fill="#FFFFFF" stroke="#14B8A6" stroke-width="1.5"/>
      <circle cx="56" cy="139" r="12" fill="url(#spTeal)"/>
      <path d="M53 135 a2.5 2.5 0 0 1 6 0 v3 a2.5 2.5 0 0 1-6 0z" fill="#fff"/>
      <text x="76" y="136" font-size="10" font-weight="700" fill="#1E3A5F">Inbound phone</text>
      <text x="76" y="150" font-size="8" fill="#64748B">Customer calls you</text>
    </g>

    <g class="sp-channel-btn" data-process="chat">
      <rect class="sp-ch-bg" x="36" y="168" width="152" height="42" rx="9" fill="#FFFFFF" stroke="#4A90E2" stroke-width="1.5"/>
      <rect x="46" y="180" width="24" height="18" rx="5" fill="#4A90E2"/>
      <circle cx="54" cy="187" r="1.5" fill="#fff"/><circle cx="60" cy="187" r="1.5" fill="#fff"/><circle cx="66" cy="187" r="1.5" fill="#fff"/>
      <text x="76" y="186" font-size="10" font-weight="700" fill="#1E3A5F">Web + in-app chat</text>
      <text x="76" y="200" font-size="8" fill="#64748B">Chat widget on your site</text>
    </g>

    <g class="sp-channel-btn" data-process="chat">
      <rect class="sp-ch-bg" x="36" y="218" width="152" height="42" rx="9" fill="#FFFFFF" stroke="#22C55E" stroke-width="1.5"/>
      <circle cx="56" cy="239" r="12" fill="#22C55E"/>
      <path d="M50 237 q6 -5 12 0 q-2 5 -6 5 q-4 0 -6 -5z" fill="#fff"/>
      <text x="76" y="236" font-size="10" font-weight="700" fill="#1E3A5F">WhatsApp / SMS</text>
      <text x="76" y="250" font-size="8" fill="#64748B">Message customers</text>
    </g>

    <g class="sp-channel-btn" data-process="chat">
      <rect class="sp-ch-bg" x="36" y="268" width="152" height="42" rx="9" fill="#FFFFFF" stroke="#8B5CF6" stroke-width="1.5"/>
      <rect x="48" y="280" width="14" height="10" rx="2" fill="#8B5CF6"/>
      <path d="M48 280 l7 6 7 -6" stroke="#fff" stroke-width="1" fill="none"/>
      <text x="76" y="286" font-size="10" font-weight="700" fill="#1E3A5F">Email</text>
      <text x="76" y="300" font-size="8" fill="#64748B">Inbox support</text>
    </g>

    <g class="sp-channel-btn" data-process="outbound">
      <rect class="sp-ch-bg" x="36" y="318" width="152" height="42" rx="9" fill="#FFFFFF" stroke="#F97316" stroke-width="1.5"/>
      <circle cx="56" cy="339" r="12" fill="url(#spOrange)"/>
      <text x="76" y="336" font-size="10" font-weight="700" fill="#1E3A5F">Outbound calls</text>
      <text x="76" y="350" font-size="8" fill="#64748B">Your team reaches out</text>
    </g>

    <rect x="44" y="378" width="136" height="52" rx="10" fill="url(#spCardGlow)" stroke="#CBD5E1"/>
    <text x="112" y="398" text-anchor="middle" font-size="8.5" fill="#64748B">Click a channel to</text>
    <text x="112" y="412" text-anchor="middle" font-size="8.5" fill="#64748B">highlight its flow</text>
    <text id="sp-reset" x="112" y="428" text-anchor="middle" font-size="9.5" fill="#2563EB" font-weight="700" style="cursor:pointer">Show all flows</text>

    <circle class="sp-pulse" cx="112" cy="468" r="22" fill="url(#spHub)"/>
    <text x="112" y="473" text-anchor="middle" font-family="Space Grotesk,Arial,sans-serif" font-size="10" font-weight="800" fill="#1E3A5F">S</text>
    <text x="112" y="502" text-anchor="middle" font-size="8" font-weight="600" fill="#64748B">One Sentra platform</text>
  </g>

  <!-- VOICE FLOW -->
  <g id="sp-voice-flow" class="sp-flow-section" data-section="voice">
    <rect x="216" y="82" width="4" height="14" rx="2" fill="#14B8A6"/>
    <text x="228" y="94" font-family="Inter,Arial,sans-serif" font-size="12" font-weight="800" fill="#0F766E" letter-spacing="0.5">INBOUND CALL</text>
    <text x="380" y="94" font-size="9" fill="#64748B">Voice AI Agent</text>

    <!-- Step 1 -->
    <g filter="url(#spSh)">
      <rect x="216" y="104" width="288" height="196" rx="18" fill="#FFFFFF" stroke="#14B8A6" stroke-width="2"/>
      <rect x="216" y="104" width="288" height="40" rx="18" fill="#ECFDF5"/>
      <rect x="216" y="128" width="288" height="16" fill="#ECFDF5"/>
      <circle cx="244" cy="124" r="12" fill="#14B8A6"/><text x="244" y="128" text-anchor="middle" font-size="10" font-weight="800" fill="#fff">1</text>
      <text x="360" y="130" text-anchor="middle" font-size="12" font-weight="800" fill="#0F766E">Customer calls in</text>
      <circle class="sp-blink" cx="360" cy="192" r="38" fill="url(#spTeal)"/>
      <path d="M351 181 a5 5 0 0 1 18 0 v12 a5 5 0 0 1-18 0z" fill="#fff"/>
      <text x="360" y="254" text-anchor="middle" font-size="10" fill="#64748B">Incoming call — no menus</text>
      <text x="360" y="270" text-anchor="middle" font-size="10" fill="#64748B">Goes straight to Sentra</text>
    </g>

    <path class="sp-flow" d="M512 202 L556 202" stroke="#14B8A6" stroke-width="3.5" fill="none"/>
    <polygon points="556,202 544,196 544,208" fill="#14B8A6"/>

    <!-- Step 2 Voice Agent -->
    <g class="sp-card-center" filter="url(#spSh)">
      <rect x="564" y="104" width="328" height="196" rx="18" fill="#FFFFFF" stroke="#4A90E2" stroke-width="2.5"/>
      <rect x="564" y="104" width="328" height="40" rx="18" fill="url(#spNavy)"/>
      <rect x="564" y="128" width="328" height="16" fill="url(#spNavy)"/>
      <circle cx="592" cy="124" r="12" fill="#FFFFFF" opacity="0.25"/>
      <text x="592" y="128" text-anchor="middle" font-size="10" font-weight="800" fill="#fff">2</text>
      <text x="728" y="130" text-anchor="middle" font-size="12" font-weight="800" fill="#FFFFFF">Sentra AI Voice Agent talks</text>

      <circle class="sp-ring" cx="648" cy="192" r="46" fill="none" stroke="url(#spHub)" stroke-width="2" stroke-dasharray="6 5" opacity="0.75"/>
      <circle class="sp-pulse" cx="648" cy="192" r="34" fill="url(#spHub)"/>
      <text x="648" y="188" text-anchor="middle" font-family="Space Grotesk,Arial,sans-serif" font-size="11" font-weight="800" fill="#1E3A5F">Sentra</text>
      <text x="648" y="200" text-anchor="middle" font-size="8" font-weight="700" fill="#2A5F9E">Voice AI</text>

      <g class="sp-wave" transform="translate(732,172)">
        <rect x="0" y="8" width="7" height="24" rx="3.5" fill="#14B8A6"/>
        <rect x="13" y="0" width="7" height="38" rx="3.5" fill="#14B8A6"/>
        <rect x="26" y="6" width="7" height="28" rx="3.5" fill="#14B8A6"/>
        <rect x="39" y="-2" width="7" height="42" rx="3.5" fill="#14B8A6"/>
      </g>

      <rect x="684" y="248" width="88" height="20" rx="10" fill="#EFF6FF" stroke="#4A90E2"/>
      <text x="728" y="262" text-anchor="middle" font-size="8.5" font-weight="700" fill="#2A5F9E">Voice AI Agent</text>
      <text x="728" y="282" text-anchor="middle" font-size="9.5" fill="#64748B">Listens &amp; answers — most calls finish here</text>
    </g>

    <path class="sp-flow" d="M900 202 L944 202" stroke="#F97316" stroke-width="3.5" fill="none"/>
    <polygon points="944,202 932,196 932,208" fill="#F97316"/>

    <!-- Step 3 -->
    <g filter="url(#spSh)">
      <rect x="952" y="104" width="288" height="196" rx="18" fill="#FFFFFF" stroke="#F97316" stroke-width="2"/>
      <rect x="952" y="104" width="288" height="40" rx="18" fill="#FFF7ED"/>
      <rect x="952" y="128" width="288" height="16" fill="#FFF7ED"/>
      <circle cx="980" cy="124" r="12" fill="#F97316"/><text x="980" y="128" text-anchor="middle" font-size="10" font-weight="800" fill="#fff">3</text>
      <text x="1096" y="130" text-anchor="middle" font-size="12" font-weight="800" fill="#C2410C">Live person (if needed)</text>
      <circle cx="1096" cy="186" r="30" fill="url(#spOrange)"/>
      <circle cx="1096" cy="176" r="11" fill="#fff"/>
      <path d="M1080 202 q16 12 32 0" stroke="#fff" stroke-width="2" fill="none"/>
      <rect x="1044" y="224" width="104" height="24" rx="12" fill="#FEF3C7" stroke="#F59E0B"/>
      <text x="1096" y="240" text-anchor="middle" font-size="9" font-weight="700" fill="#92400E">Important query?</text>
      <text x="1096" y="282" text-anchor="middle" font-size="9.5" fill="#64748B">Warm transfer to your team</text>
    </g>

    <rect x="216" y="312" width="1024" height="30" rx="10" fill="#F0FDF4" stroke="#14B8A6"/>
    <text x="728" y="331" text-anchor="middle" font-size="10" font-weight="600" fill="#0F766E">Call in &#8594; Voice AI Agent talks &#8594; live person only when the customer needs one</text>
  </g>

  <!-- CHAT FLOW -->
  <g id="sp-chat-flow" class="sp-flow-section" data-section="chat">
    <rect x="216" y="358" width="4" height="14" rx="2" fill="#8B5CF6"/>
    <text x="228" y="370" font-family="Inter,Arial,sans-serif" font-size="12" font-weight="800" fill="#6D28D9" letter-spacing="0.5">CHAT &amp; MESSAGING</text>
    <text x="420" y="370" font-size="9" fill="#64748B">Web, in-app, WhatsApp, email — Sentra Chatbot</text>

    <!-- Step 1: customer messages on multiple channels -->
    <g filter="url(#spSh)">
      <rect x="216" y="380" width="288" height="168" rx="18" fill="#FFFFFF" stroke="#4A90E2" stroke-width="2"/>
      <circle cx="244" cy="400" r="12" fill="#4A90E2"/><text x="244" y="404" text-anchor="middle" font-size="10" font-weight="800" fill="#fff">1</text>
      <text x="360" y="404" text-anchor="middle" font-size="11" font-weight="800" fill="#2A5F9E">Customer messages</text>

      <!-- In-app chat mockup -->
      <rect x="240" y="418" width="120" height="72" rx="8" fill="#F8FAFC" stroke="#CBD5E1"/>
      <rect x="248" y="424" width="104" height="10" rx="3" fill="#E2E8F0"/>
      <rect x="248" y="440" width="88" height="22" rx="8" fill="#4A90E2"/>
      <text x="256" y="454" font-size="7.5" fill="#fff">In-app chat widget</text>
      <rect x="256" y="468" width="72" height="14" rx="7" fill="#E2E8F0"/>
      <text x="264" y="478" font-size="7" fill="#475569">Where is my order?</text>

      <!-- WhatsApp pill -->
      <rect x="372" y="418" width="52" height="20" rx="10" fill="#DCFCE7" stroke="#22C55E"/>
      <text x="398" y="432" text-anchor="middle" font-size="7" font-weight="700" fill="#059669">WhatsApp</text>
      <rect x="372" y="444" width="52" height="20" rx="10" fill="#EDE9FE" stroke="#8B5CF6"/>
      <text x="398" y="458" text-anchor="middle" font-size="7" font-weight="700" fill="#6D28D9">Email</text>
      <rect x="372" y="470" width="52" height="20" rx="10" fill="#EFF6FF" stroke="#4A90E2"/>
      <text x="398" y="484" text-anchor="middle" font-size="7" font-weight="700" fill="#2A5F9E">Web chat</text>
      <text x="360" y="532" text-anchor="middle" font-size="9" fill="#64748B">Any channel — same experience</text>
    </g>

    <path class="sp-flow" d="M512 464 L556 464" stroke="#8B5CF6" stroke-width="3" fill="none"/>
    <polygon points="556,464 544,458 544,470" fill="#8B5CF6"/>

    <!-- Step 2: Chatbot -->
    <g class="sp-card-center" filter="url(#spSh)">
      <rect x="564" y="380" width="328" height="168" rx="18" fill="#FFFFFF" stroke="#8B5CF6" stroke-width="2.5"/>
      <rect x="564" y="380" width="328" height="38" rx="18" fill="url(#spPurple)"/>
      <rect x="564" y="402" width="328" height="16" fill="url(#spPurple)"/>
      <circle cx="592" cy="399" r="12" fill="#FFFFFF" opacity="0.25"/>
      <text x="592" y="403" text-anchor="middle" font-size="10" font-weight="800" fill="#fff">2</text>
      <text x="728" y="404" text-anchor="middle" font-size="11" font-weight="800" fill="#FFFFFF">Sentra Chatbot replies</text>

      <rect x="600" y="430" width="256" height="64" rx="12" fill="#FAF5FF" stroke="#DDD6FE"/>
      <rect x="616" y="444" width="180" height="18" rx="9" fill="#E2E8F0"/>
      <text x="628" y="457" font-size="8.5" fill="#475569">Where is my order?</text>
      <rect x="632" y="468" width="210" height="20" rx="10" fill="#7C3AED"/>
      <text x="644" y="482" font-size="8.5" font-weight="600" fill="#fff">Shipped today — tracking #4821</text>

      <rect x="684" y="502" width="88" height="20" rx="10" fill="#EDE9FE" stroke="#8B5CF6"/>
      <text x="728" y="516" text-anchor="middle" font-size="8.5" font-weight="700" fill="#6D28D9">Chatbot Agent</text>
      <text x="728" y="536" text-anchor="middle" font-size="9" fill="#64748B">Answers all customer queries from your docs</text>
    </g>

    <path class="sp-flow" d="M900 464 L944 464" stroke="#F97316" stroke-width="3" fill="none"/>
    <polygon points="944,464 932,458 932,470" fill="#F97316"/>

    <!-- Step 3 -->
    <g filter="url(#spSh)">
      <rect x="952" y="380" width="288" height="168" rx="18" fill="#FFFFFF" stroke="#F97316" stroke-width="2"/>
      <circle cx="980" cy="400" r="12" fill="#F97316"/><text x="980" y="404" text-anchor="middle" font-size="10" font-weight="800" fill="#fff">3</text>
      <text x="1096" y="404" text-anchor="middle" font-size="11" font-weight="800" fill="#C2410C">Live person (if needed)</text>
      <g class="sp-typing" transform="translate(1020,430)">
        <rect x="0" y="0" width="152" height="18" rx="9" fill="#E2E8F0"/>
        <text x="10" y="13" font-size="8.5" fill="#475569">Can I speak to someone?</text>
      </g>
      <rect x="1020" y="458" width="152" height="26" rx="13" fill="#FEF3C7" stroke="#F59E0B"/>
      <text x="1096" y="476" text-anchor="middle" font-size="9" font-weight="700" fill="#92400E">Hand off with full chat history</text>
      <text x="1096" y="532" text-anchor="middle" font-size="9" fill="#64748B">Your team sees everything the chatbot already handled</text>
    </g>
  </g>

  <!-- OUTBOUND -->
  <g id="sp-outbound-flow" class="sp-flow-section" data-section="outbound">
    <rect x="216" y="568" width="4" height="14" rx="2" fill="#F97316"/>
    <text x="228" y="580" font-family="Inter,Arial,sans-serif" font-size="12" font-weight="800" fill="#C2410C" letter-spacing="0.5">OUTBOUND CALLS</text>

    <rect x="216" y="590" width="1024" height="64" rx="16" fill="#FFFFFF" stroke="#F97316" stroke-width="2" filter="url(#spSh)"/>
    <rect x="216" y="590" width="1024" height="64" rx="16" fill="#FFF7ED" opacity="0.5"/>

    <g transform="translate(248,608)">
      <rect width="130" height="36" rx="10" fill="#FFFFFF" stroke="#FB923C" stroke-width="1.5"/>
      <text x="65" y="24" text-anchor="middle" font-size="10" font-weight="700" fill="#1E3A5F">Your team calls</text>
    </g>
    <path class="sp-flow" d="M388 626 L428 626" stroke="#FB923C" stroke-width="2.5" fill="none"/>
    <polygon points="428,626 418,621 418,631" fill="#FB923C"/>

    <g transform="translate(436,608)">
      <rect width="130" height="36" rx="10" fill="#FFFFFF" stroke="#FB923C" stroke-width="1.5"/>
      <text x="65" y="24" text-anchor="middle" font-size="10" font-weight="700" fill="#1E3A5F">Customer answers</text>
    </g>
    <path class="sp-flow" d="M576 626 L616 626" stroke="#FB923C" stroke-width="2.5" fill="none"/>
    <polygon points="616,626 606,621 606,631" fill="#FB923C"/>

    <g transform="translate(624,608)">
      <rect width="180" height="36" rx="10" fill="url(#spNavy)"/>
      <text x="90" y="24" text-anchor="middle" font-size="10" font-weight="700" fill="#FFFFFF">Sentra AI assists</text>
    </g>
    <path class="sp-flow" d="M814 626 L854 626" stroke="#FB923C" stroke-width="2.5" fill="none"/>
    <polygon points="854,626 844,621 844,631" fill="#FB923C"/>

    <g transform="translate(862,608)">
      <rect width="130" height="36" rx="10" fill="#FFFFFF" stroke="#14B8A6" stroke-width="1.5"/>
      <text x="65" y="24" text-anchor="middle" font-size="10" font-weight="700" fill="#0F766E">CRM notes saved</text>
    </g>
    <path class="sp-flow" d="M1002 626 L1042 626" stroke="#FB923C" stroke-width="2.5" fill="none"/>
    <polygon points="1042,626 1032,621 1032,631" fill="#FB923C"/>

    <g transform="translate(1050,608)">
      <rect width="130" height="36" rx="10" fill="#FFFFFF" stroke="#F97316" stroke-width="1.5"/>
      <text x="65" y="24" text-anchor="middle" font-size="10" font-weight="700" fill="#1E3A5F">Live follow-up</text>
    </g>
  </g>

  <!-- Features strip -->
  <g filter="url(#spSh)">
    <rect x="24" y="668" width="1272" height="40" rx="12" fill="#1E3A5F"/>
    <text x="44" y="693" font-size="10" font-weight="700" fill="#94A3B8">INCLUDED:</text>

    <rect x="118" y="676" width="96" height="24" rx="8" fill="#FFFFFF" opacity="0.12" stroke="#14B8A6"/>
    <text x="166" y="692" text-anchor="middle" font-size="9" font-weight="700" fill="#FFFFFF">Voice AI Agent</text>

    <rect x="224" y="676" width="96" height="24" rx="8" fill="#FFFFFF" opacity="0.12" stroke="#8B5CF6"/>
    <text x="272" y="692" text-anchor="middle" font-size="9" font-weight="700" fill="#FFFFFF">Chatbot Agent</text>

    <rect x="330" y="676" width="88" height="24" rx="8" fill="#FFFFFF" opacity="0.12" stroke="#F97316"/>
    <text x="374" y="692" text-anchor="middle" font-size="9" font-weight="700" fill="#FFFFFF">Live transfer</text>

    <rect x="428" y="676" width="72" height="24" rx="8" fill="#FFFFFF" opacity="0.12" stroke="#4A90E2"/>
    <text x="464" y="692" text-anchor="middle" font-size="9" font-weight="700" fill="#FFFFFF">CRM sync</text>

    <rect x="510" y="676" width="80" height="24" rx="8" fill="#FFFFFF" opacity="0.12" stroke="#22C55E"/>
    <text x="550" y="692" text-anchor="middle" font-size="9" font-weight="700" fill="#FFFFFF">Recordings</text>

    <rect x="600" y="676" width="80" height="24" rx="8" fill="#FFFFFF" opacity="0.12" stroke="#EC4899"/>
    <text x="640" y="692" text-anchor="middle" font-size="9" font-weight="700" fill="#FFFFFF">Analytics</text>

    <rect x="690" y="676" width="96" height="24" rx="8" fill="#FFFFFF" opacity="0.12" stroke="#64748B"/>
    <text x="738" y="692" text-anchor="middle" font-size="9" font-weight="700" fill="#FFFFFF">Supervisor view</text>

    <rect x="796" y="676" width="88" height="24" rx="8" fill="#FFFFFF" opacity="0.12" stroke="#6366F1"/>
    <text x="840" y="692" text-anchor="middle" font-size="9" font-weight="700" fill="#FFFFFF">Knowledge base</text>

    <circle class="sp-blink" cx="1268" cy="688" r="5" fill="#22C55E"/>
    <text x="1248" y="692" text-anchor="end" font-size="9" font-weight="600" fill="#86EFAC">All live</text>
  </g>

  <script><![CDATA[
  (function(){
    var sections = document.querySelectorAll('.sp-flow-section');
    var buttons = document.querySelectorAll('.sp-channel-btn');
    var reset = document.getElementById('sp-reset');

    function highlight(type) {
      var i, s, sec, j, b, p, active, bg;
      for (i = 0; i < sections.length; i++) {
        s = sections[i];
        sec = s.getAttribute('data-section');
        s.style.opacity = (!type || sec === type) ? '1' : '0.15';
      }
      for (j = 0; j < buttons.length; j++) {
        b = buttons[j];
        p = b.getAttribute('data-process');
        active = !type || p === type;
        b.style.opacity = active ? '1' : '0.4';
        bg = b.querySelector('.sp-ch-bg');
        if (bg) {
          bg.setAttribute('stroke-width', (type && p === type) ? '2.5' : '1.5');
          bg.setAttribute('fill', (type && p === type) ? '#F8FAFC' : '#FFFFFF');
        }
      }
    }

    for (var k = 0; k < buttons.length; k++) {
      buttons[k].addEventListener('click', function() {
        highlight(this.getAttribute('data-process'));
      });
    }
    if (reset) reset.addEventListener('click', function() { highlight(null); });
    document.addEventListener('keydown', function(e) {
      if (e.key === 'Escape') highlight(null);
    });
  })();
  ]]></script>
</svg>
